<?xml version="1.0" standalone="no"?>
<!DOCTYPE svg PUBLIC "-//W3C//DTD SVG 20010904//EN"
 "http://www.w3.org/TR/2001/REC-SVG-20010904/DTD/svg10.dtd">
<svg version="1.0" xmlns="http://www.w3.org/2000/svg"
 width="256.000000pt" height="256.000000pt" viewBox="0 0 256.000000 256.000000"
 preserveAspectRatio="xMidYMid meet">
<metadata>
Created by potrace 1.14, written by Peter Selinger 2001-2017
</metadata>
<g transform="translate(0.000000,256.000000) scale(0.100000,-0.100000)"
fill="#000000" stroke="none">
<path d="M760 1996 c-85 -67 -118 -87 -175 -104 -126 -38 -248 -126 -335 -240
-66 -87 -162 -282 -197 -402 -23 -80 -28 -114 -28 -210 0 -104 2 -120 26 -165
45 -89 152 -149 314 -176 33 -5 144 -12 246 -16 l187 -6 6 -51 c8 -66 8 -280
0 -300 -3 -9 -34 -29 -68 -45 -65 -31 -103 -72 -112 -120 -6 -27 -3 -30 32
-40 50 -14 239 -14 265 -1 10 6 27 25 36 43 16 28 18 62 18 279 0 158 4 248
10 249 6 0 78 6 161 12 l151 12 7 -80 c9 -123 7 -294 -4 -315 -6 -11 -33 -29
-60 -41 -79 -34 -142 -121 -111 -152 8 -8 61 -13 147 -15 129 -3 137 -2 160
19 38 36 47 108 42 365 l-3 232 50 6 c233 27 326 20 620 -46 99 -22 217 -42
262 -45 78 -5 82 -5 107 20 64 64 14 185 -140 347 l-73 76 -7 87 -7 87 -95 0
-95 0 5 100 5 100 -142 0 -143 0 -7 91 -7 92 -133 -7 -133 -6 -10 47 c-6 27
-13 69 -17 94 -11 73 -7 71 -139 48 -64 -12 -120 -19 -122 -16 -3 3 -9 42 -13
86 -5 45 -11 84 -13 86 -2 3 -67 -13 -144 -34 l-139 -38 -30 89 c-16 48 -34
88 -40 87 -5 0 -57 -38 -115 -83z"/>
</g>
</svg>
